<svg xmlns="http://www.w3.org/2000/svg" xmlns:xlink="http://www.w3.org/1999/xlink" id="layer" viewBox="0 0 600 159.9"><defs><style>      .st0 {        fill: #000001;        fill-rule: evenodd;      }      .st1 {        fill: #1ab25f;      }    </style></defs><rect class="st1" x="219.8" y="0" width="160.4" height="159.9" rx="13.1" ry="13.1"></rect><g><path class="st0" d="M350.6,74.7h-5.9v-29h5.9v3.3c1.4-2.4,4.4-3.6,7.1-3.6h1.8v5.8h-1.8c-5,0-7.1,2.6-7.1,7.4v16.1h0ZM240.4,34.9h6.4v24.3c0,14.6,19.5,13.5,19.5,0v-24.2h6v39.7h-6v-3.6c-3.1,2.9-6.7,4.3-10.2,4.4-8.1.3-15.7-6.3-15.7-17.1v-23.5h0ZM283.2,74.6h-5.9v-39.6h5.9v14.3c3.3-2.9,7.2-4.1,10.9-4,9.5.3,14.6,7.2,14.7,14.4,0,7.7-5.5,15.7-15.2,16-3.7.1-7.4-1.3-10.4-4.5v3.5h0ZM293.1,50.5h0c-5.5,0-9.9,4.4-9.9,9.9s4.4,9.9,9.9,9.9,9.9-4.4,9.9-9.9-4.4-9.9-9.9-9.9h0ZM340.7,62.2h-23.4c1.6,5.4,5.6,8.2,9.7,8.1,2.9,0,5.9-1.5,8.3-4.5,1.3,1,2.7,2.1,4,3.1-4.2,7.4-16.2,7.9-22.5,3-4.5-3.5-5.7-8-5.7-12.2.2-9.5,8.1-14.9,15.7-14.8,7.4,0,14.4,5.4,13.7,17.2h0ZM334.8,57.6h0c-.7-8.7-15.1-10.5-17.3,0h17.3Z"></path><path class="st0" d="M248.3,117.6v-9.8h19.8v-6.7h-19.8v-9.8h20.4v-6.7h-28.1v39.7h28.1v-6.7h-20.4ZM358.6,104.3h-7.4c-.2-1-.7-1.8-1.6-2.5-1.2-1-2.8-1.6-4.5-1.8-2.6-.3-5.6,1.1-5.7,2.7,0,1,1,2.1,4,2.9,4.9,1.4,11.3.8,14.7,5.3,4.1,5.3-.2,13.6-11.9,14-7,.2-14.3-2.8-15.3-10.3h7.4c.6,1.2,1.4,2.3,2.7,3.1,2.6,1.6,10.1,1.9,10.6-1.8,0-.5-.2-1.1-.9-1.6-1.3-.9-3.7-1.2-5.9-1.7-9.3-1.3-12.7-4.3-13.3-8.1-.3-1.7,0-3.4.7-4.9.5-1,1.3-1.9,2.1-2.7,2.7-2.5,6.9-3.6,10.9-3.4,5.7.2,13.1,3.3,13.3,10.7h0ZM328.9,117.5h0v6.7h-8.2c-5,0-7.9-3.3-7.9-8.1v-14.5h-5.6v-6.6h5.6v-8.5h7.5v8.5h8.5v6.6h-8.5v12.7c0,2.8,1,3.2,3.6,3.2h4.9ZM296.6,97.4h0v-2.5h7.7v29.3h-7.7v-2.7c-3.1,2.4-6.7,3.6-10.1,3.5-7.8-.4-15.2-6.9-15-15.8.2-9,8.3-15.1,16.2-15,3.1,0,6.3,1.1,9,3.3h0ZM287.7,100.7h0c-4.9,0-8.8,3.9-8.8,8.8s3.9,8.8,8.8,8.8,8.8-3.9,8.8-8.8-3.9-8.8-8.8-8.8Z"></path></g></svg>