<?xml version="1.0" encoding="utf-8"?>
<svg version="1.1" id="Layer_1" xmlns="http://www.w3.org/2000/svg" xmlns:xlink="http://www.w3.org/1999/xlink" x="0px" y="0px"
	 viewBox="0 0 202.6 80.5" style="enable-background:new 0 0 202.6 80.5;" xml:space="preserve">
<style type="text/css">
	.st0{fill:#FFFFFF;}
</style>
<path d="M40.2,0h122.1c22.2,0,40.2,18,40.2,40.2l0,0c0,22.2-18,40.2-40.2,40.2H40.2C18,80.5,0,62.5,0,40.2l0,0C0,18,18,0,40.2,0z"/>
<path class="st0" d="M139.5,43.2c0-3.1-2.4-5.6-5.5-5.6c-3.1,0-5.6,2.4-5.6,5.5c0,3.1,2.4,5.6,5.5,5.6c0,0,0.1,0,0.1,0 C136.9,48.7,139.4,46.3,139.5,43.2C139.5,43.3,139.5,43.2,139.5,43.2 M144,34.2v18h-4.6v-1.6c-1.6,1.4-3.7,2.1-5.8,2.1 c-5.2,0-9.4-4.2-9.4-9.4s4.2-9.4,9.4-9.4l0,0c2.1,0,4.2,0.7,5.8,2.1v-1.6L144,34.2z M159.3,48.1h-3.5c-1,0-1.7-0.4-1.7-1.4v-8.4h5.2 v-4.1h-5.2v-5.1h-4.7v5.1H146v4.1h3.5v9.6c0,2.4,1.7,4.3,4.9,4.3h5L159.3,48.1z M169.8,52.6c5.3,0,8.3-2.5,8.3-5.9 c0-2.4-1.8-4.3-5.5-5.1l-3.9-0.8c-2.3-0.4-3-0.8-3-1.7c0-1.1,1.1-1.8,3.1-1.8c2.2,0,3.8,0.6,4.3,2.6h4.6c-0.3-3.7-3-6.2-8.6-6.2 c-4.8,0-8.2,2-8.2,5.7c0,2.6,1.9,4.3,5.9,5.2l4.4,1c1.7,0.3,2.2,0.8,2.2,1.5c0,1.1-1.3,1.8-3.4,1.8c-2.7,0-4.2-0.6-4.8-2.6h-4.7 C161.3,50.1,164.1,52.6,169.8,52.6 M105.2,27.9h17.4V32h-12.7V38h12.4v4h-12.4v6h12.7v4.2h-17.4V27.9z"/>
<path class="st0" d="M96.9,37.6v-3.3h-1.2c-1.8-0.1-3.4,0.8-4.3,2.3v-2.2h-3.5v17.7h3.6V42.1c0-2.7,1.7-4.5,4-4.5L96.9,37.6z M71.2,41.7c0.5-2.6,2.8-4.5,5.5-4.5c2.7,0,5,1.9,5.5,4.5H71.2z M76.8,34.1c-5.1,0.1-9.1,4.3-9.1,9.4c0.1,5.1,4.3,9.1,9.4,9.1 c3,0.1,5.9-1.3,7.8-3.8l-2.6-1.9c-1.2,1.7-3.1,2.6-5.2,2.6c-3,0-5.5-2.1-6-5h14.7v-1.2c0.2-4.9-3.6-9-8.5-9.2 C77.2,34.1,77,34.1,76.8,34.1 M56.4,49.5c-3.4,0-6.1-2.8-6.1-6.2c0-3.4,2.8-6.1,6.2-6.1c3.4,0,6.1,2.8,6.1,6.1 C62.6,46.7,59.8,49.5,56.4,49.5C56.4,49.5,56.4,49.5,56.4,49.5 M46.7,52.2h3.5v-2.2c1.7,1.7,4,2.6,6.4,2.6c5.1,0.3,9.5-3.6,9.8-8.7 c0.3-5.1-3.6-9.5-8.7-9.8c-0.4,0-0.7,0-1.1,0c-2.4,0-4.7,0.9-6.4,2.6v-8.9h-3.6V52.2z M34.1,49.3c3.4,0,6.1-2.6,6.1-6.5v-15h3.7 v24.3h-3.6v-2.3c-3.7,3.6-9.6,3.6-13.2-0.1c-1.7-1.8-2.7-4.2-2.7-6.6V27.9h3.7v15C28.1,46.8,30.7,49.3,34.1,49.3"/>
</svg>
